<svg xmlns="http://www.w3.org/2000/svg" width="900" height="180" viewBox="0 0 900 180" shape-rendering="crispEdges" role="img" aria-label="A local RAG-powered reasoning assistant inspired by Leonardo da Vinci. Ask about art, anatomy, mechanics, fluid dynamics, optics and geometry, answered from his notebook texts."><style></style><rect width="900" height="180" fill="#151618"/><rect x="1" y="1" width="898" height="178" fill="none" stroke="#3a3b3f" stroke-width="2"/><rect x="24" y="24" width="84" height="84" fill="#2a2b2e"/><rect x="24" y="24" width="84" height="3" fill="#0e0e10"/><rect x="24" y="24" width="3" height="84" fill="#0e0e10"/><rect x="24" y="105" width="84" height="3" fill="#5a5b60"/><rect x="105" y="24" width="3" height="84" fill="#5a5b60"/><path fill="#363636" d="M50 34h8v8h-8zM58 34h8v8h-8zM66 34h8v8h-8zM74 34h8v8h-8zM82 34h8v8h-8zM42 42h8v8h-8zM90 42h8v8h-8zM42 50h8v8h-8zM90 50h8v8h-8zM42 58h8v8h-8zM90 58h8v8h-8zM42 66h8v8h-8zM90 66h8v8h-8zM42 74h8v8h-8zM90 74h8v8h-8zM42 82h8v8h-8zM50 82h8v8h-8zM58 82h8v8h-8zM66 82h8v8h-8zM74 82h8v8h-8zM82 82h8v8h-8zM90 82h8v8h-8z"/><path fill="#6f6f6f" d="M50 42h8v8h-8zM58 42h8v8h-8zM66 42h8v8h-8zM74 42h8v8h-8zM50 50h8v8h-8zM74 50h8v8h-8zM50 58h8v8h-8zM58 58h8v8h-8zM66 58h8v8h-8zM50 66h8v8h-8zM74 66h8v8h-8zM50 74h8v8h-8zM58 74h8v8h-8zM66 74h8v8h-8z"/><path fill="#e3e3e3" d="M82 42h8v8h-8zM82 50h8v8h-8zM74 58h8v8h-8zM82 58h8v8h-8zM82 66h8v8h-8zM74 74h8v8h-8zM82 74h8v8h-8z"/><path fill="#fff05f" d="M58 50h8v8h-8zM66 50h8v8h-8zM58 66h8v8h-8zM66 66h8v8h-8z"/><text x="128" y="46" font-size="15" fill="#d4d4d4" font-family="'DejaVu Sans Mono',Consolas,'Courier New',monospace">A local RAG-powered reasoning assistant inspired by Leonardo da Vinci. Ask</text><text x="128" y="70" font-size="15" fill="#d4d4d4" font-family="'DejaVu Sans Mono',Consolas,'Courier New',monospace">about art, anatomy, mechanics, fluid dynamics, optics and geometry,</text><text x="128" y="94" font-size="15" fill="#d4d4d4" font-family="'DejaVu Sans Mono',Consolas,'Courier New',monospace">answered from his notebook texts.</text><rect x="128" y="130" width="113" height="26" fill="#202124" stroke="#4a4a4a" stroke-width="2"/><rect x="128" y="130" width="113" height="3" fill="#6a6a6a"/><text x="139" y="148" font-size="12" fill="#b8b8b8" font-family="'DejaVu Sans Mono',Consolas,'Courier New',monospace">Python 3.10+</text><rect x="249.2" y="130" width="75" height="26" fill="#202124" stroke="#4a4a4a" stroke-width="2"/><rect x="249.2" y="130" width="75" height="3" fill="#6a6a6a"/><text x="260.2" y="148" font-size="12" fill="#b8b8b8" font-family="'DejaVu Sans Mono',Consolas,'Courier New',monospace">FastAPI</text><rect x="332.4" y="130" width="60" height="26" fill="#202124" stroke="#4a4a4a" stroke-width="2"/><rect x="332.4" y="130" width="60" height="3" fill="#6a6a6a"/><text x="343.4" y="148" font-size="12" fill="#b8b8b8" font-family="'DejaVu Sans Mono',Consolas,'Courier New',monospace">FAISS</text><rect x="400.4" y="130" width="68" height="26" fill="#202124" stroke="#4a4a4a" stroke-width="2"/><rect x="400.4" y="130" width="68" height="3" fill="#6a6a6a"/><text x="411.4" y="148" font-size="12" fill="#b8b8b8" font-family="'DejaVu Sans Mono',Consolas,'Courier New',monospace">Ollama</text><rect x="476.0" y="130" width="106" height="26" fill="#202124" stroke="#4a4a4a" stroke-width="2"/><rect x="476.0" y="130" width="106" height="3" fill="#6a6a6a"/><text x="487.0" y="148" font-size="12" fill="#b8b8b8" font-family="'DejaVu Sans Mono',Consolas,'Courier New',monospace">llama3.1 8B</text><rect x="589.6" y="130" width="113" height="26" fill="#202124" stroke="#d9a441" stroke-width="2"/><rect x="589.6" y="130" width="113" height="3" fill="#d9a441"/><text x="600.6" y="148" font-size="12" fill="#d9a441" font-family="'DejaVu Sans Mono',Consolas,'Courier New',monospace">100% offline</text><rect x="710.8" y="130" width="106" height="26" fill="#202124" stroke="#d9a441" stroke-width="2"/><rect x="710.8" y="130" width="106" height="3" fill="#d9a441"/><text x="721.8" y="148" font-size="12" fill="#d9a441" font-family="'DejaVu Sans Mono',Consolas,'Courier New',monospace">no API keys</text></svg>