<svg xmlns="http://www.w3.org/2000/svg" width="900" height="372" viewBox="0 0 900 372" shape-rendering="crispEdges" role="img" aria-label="Vinci AI pipeline animation"><style>@keyframes h0{0%,4.08%{opacity:0}5.08%,20.41%{opacity:1}21.61%,100%{opacity:0}}.h0{animation:h0 9.8s linear infinite}@keyframes c0{0%,4.08%{opacity:0;transform:translateX(-8px)}5.08%,19.91%{opacity:1;transform:none}21.21%,100%{opacity:0}}.c0{animation:c0 9.8s linear infinite}@keyframes h1{0%,20.41%{opacity:0}21.41%,36.73%{opacity:1}37.93%,100%{opacity:0}}.h1{animation:h1 9.8s linear infinite}@keyframes c1{0%,20.41%{opacity:0;transform:translateX(-8px)}21.41%,36.23%{opacity:1;transform:none}37.53%,100%{opacity:0}}.c1{animation:c1 9.8s linear infinite}@keyframes h2{0%,36.73%{opacity:0}37.73%,53.06%{opacity:1}54.26%,100%{opacity:0}}.h2{animation:h2 9.8s linear infinite}@keyframes c2{0%,36.73%{opacity:0;transform:translateX(-8px)}37.73%,52.56%{opacity:1;transform:none}53.86%,100%{opacity:0}}.c2{animation:c2 9.8s linear infinite}@keyframes h3{0%,53.06%{opacity:0}54.06%,69.39%{opacity:1}70.59%,100%{opacity:0}}.h3{animation:h3 9.8s linear infinite}@keyframes c3{0%,53.06%{opacity:0;transform:translateX(-8px)}54.06%,68.89%{opacity:1;transform:none}70.19%,100%{opacity:0}}.c3{animation:c3 9.8s linear infinite}@keyframes h4{0%,69.39%{opacity:0}70.39%,85.71%{opacity:1}86.91%,100%{opacity:0}}.h4{animation:h4 9.8s linear infinite}@keyframes c4{0%,69.39%{opacity:0;transform:translateX(-8px)}70.39%,85.21%{opacity:1;transform:none}86.51%,100%{opacity:0}}.c4{animation:c4 9.8s linear infinite}@keyframes it{0%{transform:translateX(0);opacity:0}4.07%{opacity:0}4.08%{opacity:1;transform:translateX(0.0px)}13.06%{transform:translateX(0.0px)}20.41%{transform:translateX(181.0px)}29.39%{transform:translateX(181.0px)}36.73%{transform:translateX(362.0px)}45.71%{transform:translateX(362.0px)}53.06%{transform:translateX(543.0px)}62.04%{transform:translateX(543.0px)}69.39%{transform:translateX(724.0px)}78.37%{transform:translateX(724.0px)}85.51%{opacity:1;transform:translateX(724.0px)}86.71%,100%{opacity:0;transform:translateX(724.0px)}}.it{animation:it 9.8s linear infinite}</style><rect width="900" height="372" fill="#151618"/><rect x="0" y="0" width="1" height="372" fill="#ffffff" opacity=".025"/><rect x="24" y="0" width="1" height="372" fill="#ffffff" opacity=".025"/><rect x="48" y="0" width="1" height="372" fill="#ffffff" opacity=".025"/><rect x="72" y="0" width="1" height="372" fill="#ffffff" opacity=".025"/><rect x="96" y="0" width="1" height="372" fill="#ffffff" opacity=".025"/><rect x="120" y="0" width="1" height="372" fill="#ffffff" opacity=".025"/><rect x="144" y="0" width="1" height="372" fill="#ffffff" opacity=".025"/><rect x="168" y="0" width="1" height="372" fill="#ffffff" opacity=".025"/><rect x="192" y="0" width="1" height="372" fill="#ffffff" opacity=".025"/><rect x="216" y="0" width="1" height="372" fill="#ffffff" opacity=".025"/><rect x="240" y="0" width="1" height="372" fill="#ffffff" opacity=".025"/><rect x="264" y="0" width="1" height="372" fill="#ffffff" opacity=".025"/><rect x="288" y="0" width="1" height="372" fill="#ffffff" opacity=".025"/><rect x="312" y="0" width="1" height="372" fill="#ffffff" opacity=".025"/><rect x="336" y="0" width="1" height="372" fill="#ffffff" opacity=".025"/><rect x="360" y="0" width="1" height="372" fill="#ffffff" opacity=".025"/><rect x="384" y="0" width="1" height="372" fill="#ffffff" opacity=".025"/><rect x="408" y="0" width="1" height="372" fill="#ffffff" opacity=".025"/><rect x="432" y="0" width="1" height="372" fill="#ffffff" opacity=".025"/><rect x="456" y="0" width="1" height="372" fill="#ffffff" opacity=".025"/><rect x="480" y="0" width="1" height="372" fill="#ffffff" opacity=".025"/><rect x="504" y="0" width="1" height="372" fill="#ffffff" opacity=".025"/><rect x="528" y="0" width="1" height="372" fill="#ffffff" opacity=".025"/><rect x="552" y="0" width="1" height="372" fill="#ffffff" opacity=".025"/><rect x="576" y="0" width="1" height="372" fill="#ffffff" opacity=".025"/><rect x="600" y="0" width="1" height="372" fill="#ffffff" opacity=".025"/><rect x="624" y="0" width="1" height="372" fill="#ffffff" opacity=".025"/><rect x="648" y="0" width="1" height="372" fill="#ffffff" opacity=".025"/><rect x="672" y="0" width="1" height="372" fill="#ffffff" opacity=".025"/><rect x="696" y="0" width="1" height="372" fill="#ffffff" opacity=".025"/><rect x="720" y="0" width="1" height="372" fill="#ffffff" opacity=".025"/><rect x="744" y="0" width="1" height="372" fill="#ffffff" opacity=".025"/><rect x="768" y="0" width="1" height="372" fill="#ffffff" opacity=".025"/><rect x="792" y="0" width="1" height="372" fill="#ffffff" opacity=".025"/><rect x="816" y="0" width="1" height="372" fill="#ffffff" opacity=".025"/><rect x="840" y="0" width="1" height="372" fill="#ffffff" opacity=".025"/><rect x="864" y="0" width="1" height="372" fill="#ffffff" opacity=".025"/><rect x="888" y="0" width="1" height="372" fill="#ffffff" opacity=".025"/><rect x="0" y="0" width="900" height="1" fill="#ffffff" opacity=".025"/><rect x="0" y="24" width="900" height="1" fill="#ffffff" opacity=".025"/><rect x="0" y="48" width="900" height="1" fill="#ffffff" opacity=".025"/><rect x="0" y="72" width="900" height="1" fill="#ffffff" opacity=".025"/><rect x="0" y="96" width="900" height="1" fill="#ffffff" opacity=".025"/><rect x="0" y="120" width="900" height="1" fill="#ffffff" opacity=".025"/><rect x="0" y="144" width="900" height="1" fill="#ffffff" opacity=".025"/><rect x="0" y="168" width="900" height="1" fill="#ffffff" opacity=".025"/><rect x="0" y="192" width="900" height="1" fill="#ffffff" opacity=".025"/><rect x="0" y="216" width="900" height="1" fill="#ffffff" opacity=".025"/><rect x="0" y="240" width="900" height="1" fill="#ffffff" opacity=".025"/><rect x="0" y="264" width="900" height="1" fill="#ffffff" opacity=".025"/><rect x="0" y="288" width="900" height="1" fill="#ffffff" opacity=".025"/><rect x="0" y="312" width="900" height="1" fill="#ffffff" opacity=".025"/><rect x="0" y="336" width="900" height="1" fill="#ffffff" opacity=".025"/><rect x="0" y="360" width="900" height="1" fill="#ffffff" opacity=".025"/><rect x="1" y="1" width="898" height="370" fill="none" stroke="#3a3b3f" stroke-width="2"/><rect x="1" y="1" width="898" height="4" fill="#8a8a8a"/><rect x="1" y="367" width="898" height="4" fill="#4a4a4a"/><path fill="#000000" d="M36 32h3v3h-3zM48 32h3v3h-3zM36 35h3v3h-3zM48 35h3v3h-3zM36 38h3v3h-3zM48 38h3v3h-3zM36 41h3v3h-3zM48 41h3v3h-3zM36 44h3v3h-3zM48 44h3v3h-3zM39 47h3v3h-3zM45 47h3v3h-3zM42 50h3v3h-3zM54 32h15v3h-15zM60 35h3v3h-3zM60 38h3v3h-3zM60 41h3v3h-3zM60 44h3v3h-3zM60 47h3v3h-3zM54 50h15v3h-15zM72 32h3v3h-3zM84 32h3v3h-3zM72 35h6v3h-6zM84 35h3v3h-3zM72 38h3v3h-3zM78 38h3v3h-3zM84 38h3v3h-3zM72 41h3v3h-3zM81 41h6v3h-6zM72 44h3v3h-3zM84 44h3v3h-3zM72 47h3v3h-3zM84 47h3v3h-3zM72 50h3v3h-3zM84 50h3v3h-3zM93 32h12v3h-12zM90 35h3v3h-3zM90 38h3v3h-3zM90 41h3v3h-3zM90 44h3v3h-3zM90 47h3v3h-3zM93 50h12v3h-12zM108 32h15v3h-15zM114 35h3v3h-3zM114 38h3v3h-3zM114 41h3v3h-3zM114 44h3v3h-3zM114 47h3v3h-3zM108 50h15v3h-15zM138 32h9v3h-9zM135 35h3v3h-3zM147 35h3v3h-3zM135 38h3v3h-3zM147 38h3v3h-3zM135 41h15v3h-15zM135 44h3v3h-3zM147 44h3v3h-3zM135 47h3v3h-3zM147 47h3v3h-3zM135 50h3v3h-3zM147 50h3v3h-3zM153 32h15v3h-15zM159 35h3v3h-3zM159 38h3v3h-3zM159 41h3v3h-3zM159 44h3v3h-3zM159 47h3v3h-3zM153 50h15v3h-15z"/><path fill="#e8e8e8" d="M34 30h3v3h-3zM46 30h3v3h-3zM34 33h3v3h-3zM46 33h3v3h-3zM34 36h3v3h-3zM46 36h3v3h-3zM34 39h3v3h-3zM46 39h3v3h-3zM34 42h3v3h-3zM46 42h3v3h-3zM37 45h3v3h-3zM43 45h3v3h-3zM40 48h3v3h-3zM52 30h15v3h-15zM58 33h3v3h-3zM58 36h3v3h-3zM58 39h3v3h-3zM58 42h3v3h-3zM58 45h3v3h-3zM52 48h15v3h-15zM70 30h3v3h-3zM82 30h3v3h-3zM70 33h6v3h-6zM82 33h3v3h-3zM70 36h3v3h-3zM76 36h3v3h-3zM82 36h3v3h-3zM70 39h3v3h-3zM79 39h6v3h-6zM70 42h3v3h-3zM82 42h3v3h-3zM70 45h3v3h-3zM82 45h3v3h-3zM70 48h3v3h-3zM82 48h3v3h-3zM91 30h12v3h-12zM88 33h3v3h-3zM88 36h3v3h-3zM88 39h3v3h-3zM88 42h3v3h-3zM88 45h3v3h-3zM91 48h12v3h-12zM106 30h15v3h-15zM112 33h3v3h-3zM112 36h3v3h-3zM112 39h3v3h-3zM112 42h3v3h-3zM112 45h3v3h-3zM106 48h15v3h-15zM136 30h9v3h-9zM133 33h3v3h-3zM145 33h3v3h-3zM133 36h3v3h-3zM145 36h3v3h-3zM133 39h15v3h-15zM133 42h3v3h-3zM145 42h3v3h-3zM133 45h3v3h-3zM145 45h3v3h-3zM133 48h3v3h-3zM145 48h3v3h-3zM151 30h15v3h-15zM157 33h3v3h-3zM157 36h3v3h-3zM157 39h3v3h-3zM157 42h3v3h-3zM157 45h3v3h-3zM151 48h15v3h-15z"/><text x="36" y="86" font-size="13" fill="#8a8d92" font-family="'DejaVu Sans Mono',Consolas,'Courier New',monospace">Ask Leonardo. Answers come from his own notebooks.</text><rect x="88.0" y="155" width="724.0" height="6" fill="#4a4a4a"/><rect x="88.0" y="155" width="724.0" height="2" fill="#6a6a6a"/><rect x="174.5" y="149" width="8" height="18" fill="#6a6a6a"/><rect x="355.5" y="149" width="8" height="18" fill="#6a6a6a"/><rect x="536.5" y="149" width="8" height="18" fill="#6a6a6a"/><rect x="717.5" y="149" width="8" height="18" fill="#6a6a6a"/><rect x="40.0" y="110.0" width="96" height="96" fill="#6a6a6a"/><rect x="124.0" y="164.0" width="6" height="6" fill="#4a4a4a" opacity=".55"/><rect x="46.0" y="116.0" width="6" height="6" fill="#4a4a4a" opacity=".55"/><rect x="100.0" y="140.0" width="6" height="6" fill="#8a8a8a" opacity=".55"/><rect x="52.0" y="194.0" width="6" height="6" fill="#8a8a8a" opacity=".55"/><rect x="94.0" y="122.0" width="6" height="6" fill="#8a8a8a" opacity=".55"/><rect x="88.0" y="122.0" width="6" height="6" fill="#8a8a8a" opacity=".55"/><rect x="118.0" y="194.0" width="6" height="6" fill="#8a8a8a" opacity=".55"/><rect x="106.0" y="110.0" width="6" height="6" fill="#8a8a8a" opacity=".55"/><rect x="52.0" y="170.0" width="6" height="6" fill="#4a4a4a" opacity=".55"/><rect x="40.0" y="134.0" width="6" height="6" fill="#8a8a8a" opacity=".55"/><rect x="118.0" y="110.0" width="6" height="6" fill="#8a8a8a" opacity=".55"/><rect x="46.0" y="140.0" width="6" height="6" fill="#4a4a4a" opacity=".55"/><rect x="82.0" y="164.0" width="6" height="6" fill="#8a8a8a" opacity=".55"/><rect x="82.0" y="194.0" width="6" height="6" fill="#4a4a4a" opacity=".55"/><rect x="40.0" y="110.0" width="96" height="4" fill="#8a8a8a"/><rect x="40.0" y="110.0" width="4" height="96" fill="#8a8a8a"/><rect x="40.0" y="202.0" width="96" height="4" fill="#4a4a4a"/><rect x="132.0" y="110.0" width="4" height="96" fill="#4a4a4a"/><path fill="#111111" d="M87.5 143h5v5h-5zM82.5 148h10v5h-10zM87.5 153h5v5h-5zM87.5 158h5v5h-5zM87.5 163h5v5h-5zM87.5 168h5v5h-5zM82.5 173h15v5h-15z"/><path fill="#f0f0f0" d="M85.5 141h5v5h-5zM80.5 146h10v5h-10zM85.5 151h5v5h-5zM85.5 156h5v5h-5zM85.5 161h5v5h-5zM85.5 166h5v5h-5zM80.5 171h15v5h-15z"/><g class="h0" opacity="0"><rect x="36.0" y="106.0" width="104" height="104" fill="none" stroke="#d9a441" stroke-width="4"/></g><text x="88.0" y="228.0" font-size="12" font-weight="bold" text-anchor="middle" fill="#d4d4d4" font-family="'DejaVu Sans Mono',Consolas,'Courier New',monospace">ASK</text><g class="c0" opacity="0"><text x="36" y="292" font-size="12" fill="#d9a441" font-family="'DejaVu Sans Mono',Consolas,'Courier New',monospace">STEP 1 OF 5</text><text x="36" y="318" font-size="17" font-weight="bold" fill="#eeeeee" font-family="'DejaVu Sans Mono',Consolas,'Courier New',monospace">Ask</text><text x="36" y="342" font-size="14" fill="#d4d4d4" font-family="'DejaVu Sans Mono',Consolas,'Courier New',monospace">Question typed into the chat UI</text></g><rect x="221.0" y="110.0" width="96" height="96" fill="#6a6a6a"/><rect x="311.0" y="110.0" width="6" height="6" fill="#8a8a8a" opacity=".55"/><rect x="299.0" y="116.0" width="6" height="6" fill="#8a8a8a" opacity=".55"/><rect x="305.0" y="152.0" width="6" height="6" fill="#8a8a8a" opacity=".55"/><rect x="269.0" y="194.0" width="6" height="6" fill="#8a8a8a" opacity=".55"/><rect x="311.0" y="116.0" width="6" height="6" fill="#8a8a8a" opacity=".55"/><rect x="245.0" y="188.0" width="6" height="6" fill="#8a8a8a" opacity=".55"/><rect x="257.0" y="146.0" width="6" height="6" fill="#8a8a8a" opacity=".55"/><rect x="275.0" y="152.0" width="6" height="6" fill="#4a4a4a" opacity=".55"/><rect x="263.0" y="140.0" width="6" height="6" fill="#8a8a8a" opacity=".55"/><rect x="269.0" y="158.0" width="6" height="6" fill="#8a8a8a" opacity=".55"/><rect x="299.0" y="188.0" width="6" height="6" fill="#8a8a8a" opacity=".55"/><rect x="245.0" y="146.0" width="6" height="6" fill="#8a8a8a" opacity=".55"/><rect x="251.0" y="182.0" width="6" height="6" fill="#4a4a4a" opacity=".55"/><rect x="281.0" y="110.0" width="6" height="6" fill="#4a4a4a" opacity=".55"/><rect x="221.0" y="110.0" width="96" height="4" fill="#8a8a8a"/><rect x="221.0" y="110.0" width="4" height="96" fill="#8a8a8a"/><rect x="221.0" y="202.0" width="96" height="4" fill="#4a4a4a"/><rect x="313.0" y="110.0" width="4" height="96" fill="#4a4a4a"/><path fill="#111111" d="M263.5 143h15v5h-15zM258.5 148h5v5h-5zM278.5 148h5v5h-5zM278.5 153h5v5h-5zM273.5 158h5v5h-5zM268.5 163h5v5h-5zM263.5 168h5v5h-5zM258.5 173h25v5h-25z"/><path fill="#f0f0f0" d="M261.5 141h15v5h-15zM256.5 146h5v5h-5zM276.5 146h5v5h-5zM276.5 151h5v5h-5zM271.5 156h5v5h-5zM266.5 161h5v5h-5zM261.5 166h5v5h-5zM256.5 171h25v5h-25z"/><g class="h1" opacity="0"><rect x="217.0" y="106.0" width="104" height="104" fill="none" stroke="#d9a441" stroke-width="4"/></g><text x="269.0" y="228.0" font-size="12" font-weight="bold" text-anchor="middle" fill="#d4d4d4" font-family="'DejaVu Sans Mono',Consolas,'Courier New',monospace">ROUTE</text><g class="c1" opacity="0"><text x="36" y="292" font-size="12" fill="#d9a441" font-family="'DejaVu Sans Mono',Consolas,'Courier New',monospace">STEP 2 OF 5</text><text x="36" y="318" font-size="17" font-weight="bold" fill="#eeeeee" font-family="'DejaVu Sans Mono',Consolas,'Courier New',monospace">Route</text><text x="36" y="342" font-size="14" fill="#d4d4d4" font-family="'DejaVu Sans Mono',Consolas,'Courier New',monospace">Small talk skips retrieval, topics trigger it</text></g><rect x="402.0" y="110.0" width="96" height="96" fill="#6a6a6a"/><rect x="468.0" y="134.0" width="6" height="6" fill="#8a8a8a" opacity=".55"/><rect x="462.0" y="170.0" width="6" height="6" fill="#8a8a8a" opacity=".55"/><rect x="414.0" y="164.0" width="6" height="6" fill="#8a8a8a" opacity=".55"/><rect x="486.0" y="158.0" width="6" height="6" fill="#8a8a8a" opacity=".55"/><rect x="444.0" y="122.0" width="6" height="6" fill="#4a4a4a" opacity=".55"/><rect x="414.0" y="110.0" width="6" height="6" fill="#4a4a4a" opacity=".55"/><rect x="438.0" y="182.0" width="6" height="6" fill="#8a8a8a" opacity=".55"/><rect x="432.0" y="122.0" width="6" height="6" fill="#4a4a4a" opacity=".55"/><rect x="414.0" y="164.0" width="6" height="6" fill="#4a4a4a" opacity=".55"/><rect x="468.0" y="194.0" width="6" height="6" fill="#8a8a8a" opacity=".55"/><rect x="450.0" y="164.0" width="6" height="6" fill="#8a8a8a" opacity=".55"/><rect x="408.0" y="194.0" width="6" height="6" fill="#8a8a8a" opacity=".55"/><rect x="426.0" y="188.0" width="6" height="6" fill="#8a8a8a" opacity=".55"/><rect x="456.0" y="200.0" width="6" height="6" fill="#8a8a8a" opacity=".55"/><rect x="402.0" y="110.0" width="96" height="4" fill="#8a8a8a"/><rect x="402.0" y="110.0" width="4" height="96" fill="#8a8a8a"/><rect x="402.0" y="202.0" width="96" height="4" fill="#4a4a4a"/><rect x="494.0" y="110.0" width="4" height="96" fill="#4a4a4a"/><path fill="#111111" d="M439.5 143h20v5h-20zM459.5 148h5v5h-5zM459.5 153h5v5h-5zM444.5 158h15v5h-15zM459.5 163h5v5h-5zM459.5 168h5v5h-5zM439.5 173h20v5h-20z"/><path fill="#f0f0f0" d="M437.5 141h20v5h-20zM457.5 146h5v5h-5zM457.5 151h5v5h-5zM442.5 156h15v5h-15zM457.5 161h5v5h-5zM457.5 166h5v5h-5zM437.5 171h20v5h-20z"/><g class="h2" opacity="0"><rect x="398.0" y="106.0" width="104" height="104" fill="none" stroke="#d9a441" stroke-width="4"/></g><text x="450.0" y="228.0" font-size="12" font-weight="bold" text-anchor="middle" fill="#d4d4d4" font-family="'DejaVu Sans Mono',Consolas,'Courier New',monospace">RETRIEVE</text><g class="c2" opacity="0"><text x="36" y="292" font-size="12" fill="#d9a441" font-family="'DejaVu Sans Mono',Consolas,'Courier New',monospace">STEP 3 OF 5</text><text x="36" y="318" font-size="17" font-weight="bold" fill="#eeeeee" font-family="'DejaVu Sans Mono',Consolas,'Courier New',monospace">Retrieve</text><text x="36" y="342" font-size="14" fill="#d4d4d4" font-family="'DejaVu Sans Mono',Consolas,'Courier New',monospace">FAISS finds matching notebook entries</text></g><rect x="583.0" y="110.0" width="96" height="96" fill="#6a6a6a"/><rect x="613.0" y="164.0" width="6" height="6" fill="#8a8a8a" opacity=".55"/><rect x="673.0" y="152.0" width="6" height="6" fill="#4a4a4a" opacity=".55"/><rect x="619.0" y="158.0" width="6" height="6" fill="#4a4a4a" opacity=".55"/><rect x="583.0" y="116.0" width="6" height="6" fill="#8a8a8a" opacity=".55"/><rect x="601.0" y="146.0" width="6" height="6" fill="#8a8a8a" opacity=".55"/><rect x="661.0" y="194.0" width="6" height="6" fill="#4a4a4a" opacity=".55"/><rect x="649.0" y="158.0" width="6" height="6" fill="#8a8a8a" opacity=".55"/><rect x="667.0" y="194.0" width="6" height="6" fill="#8a8a8a" opacity=".55"/><rect x="661.0" y="110.0" width="6" height="6" fill="#4a4a4a" opacity=".55"/><rect x="625.0" y="134.0" width="6" height="6" fill="#8a8a8a" opacity=".55"/><rect x="673.0" y="164.0" width="6" height="6" fill="#4a4a4a" opacity=".55"/><rect x="667.0" y="176.0" width="6" height="6" fill="#4a4a4a" opacity=".55"/><rect x="655.0" y="170.0" width="6" height="6" fill="#8a8a8a" opacity=".55"/><rect x="649.0" y="176.0" width="6" height="6" fill="#8a8a8a" opacity=".55"/><rect x="583.0" y="110.0" width="96" height="4" fill="#8a8a8a"/><rect x="583.0" y="110.0" width="4" height="96" fill="#8a8a8a"/><rect x="583.0" y="202.0" width="96" height="4" fill="#4a4a4a"/><rect x="675.0" y="110.0" width="4" height="96" fill="#4a4a4a"/><path fill="#111111" d="M620.5 143h5v5h-5zM640.5 143h5v5h-5zM620.5 148h5v5h-5zM640.5 148h5v5h-5zM620.5 153h5v5h-5zM640.5 153h5v5h-5zM620.5 158h25v5h-25zM640.5 163h5v5h-5zM640.5 168h5v5h-5zM640.5 173h5v5h-5z"/><path fill="#f0f0f0" d="M618.5 141h5v5h-5zM638.5 141h5v5h-5zM618.5 146h5v5h-5zM638.5 146h5v5h-5zM618.5 151h5v5h-5zM638.5 151h5v5h-5zM618.5 156h25v5h-25zM638.5 161h5v5h-5zM638.5 166h5v5h-5zM638.5 171h5v5h-5z"/><g class="h3" opacity="0"><rect x="579.0" y="106.0" width="104" height="104" fill="none" stroke="#d9a441" stroke-width="4"/></g><text x="631.0" y="228.0" font-size="12" font-weight="bold" text-anchor="middle" fill="#d4d4d4" font-family="'DejaVu Sans Mono',Consolas,'Courier New',monospace">REASON</text><g class="c3" opacity="0"><text x="36" y="292" font-size="12" fill="#d9a441" font-family="'DejaVu Sans Mono',Consolas,'Courier New',monospace">STEP 4 OF 5</text><text x="36" y="318" font-size="17" font-weight="bold" fill="#eeeeee" font-family="'DejaVu Sans Mono',Consolas,'Courier New',monospace">Reason</text><text x="36" y="342" font-size="14" fill="#d4d4d4" font-family="'DejaVu Sans Mono',Consolas,'Courier New',monospace">Local Ollama LLM writes the answer</text></g><rect x="764.0" y="110.0" width="96" height="96" fill="#6a6a6a"/><rect x="854.0" y="200.0" width="6" height="6" fill="#4a4a4a" opacity=".55"/><rect x="770.0" y="110.0" width="6" height="6" fill="#4a4a4a" opacity=".55"/><rect x="800.0" y="110.0" width="6" height="6" fill="#4a4a4a" opacity=".55"/><rect x="836.0" y="110.0" width="6" height="6" fill="#8a8a8a" opacity=".55"/><rect x="764.0" y="188.0" width="6" height="6" fill="#4a4a4a" opacity=".55"/><rect x="818.0" y="158.0" width="6" height="6" fill="#8a8a8a" opacity=".55"/><rect x="830.0" y="110.0" width="6" height="6" fill="#8a8a8a" opacity=".55"/><rect x="818.0" y="128.0" width="6" height="6" fill="#8a8a8a" opacity=".55"/><rect x="842.0" y="140.0" width="6" height="6" fill="#4a4a4a" opacity=".55"/><rect x="812.0" y="182.0" width="6" height="6" fill="#8a8a8a" opacity=".55"/><rect x="854.0" y="116.0" width="6" height="6" fill="#4a4a4a" opacity=".55"/><rect x="782.0" y="146.0" width="6" height="6" fill="#4a4a4a" opacity=".55"/><rect x="848.0" y="110.0" width="6" height="6" fill="#8a8a8a" opacity=".55"/><rect x="830.0" y="122.0" width="6" height="6" fill="#8a8a8a" opacity=".55"/><rect x="764.0" y="110.0" width="96" height="4" fill="#8a8a8a"/><rect x="764.0" y="110.0" width="4" height="96" fill="#8a8a8a"/><rect x="764.0" y="202.0" width="96" height="4" fill="#4a4a4a"/><rect x="856.0" y="110.0" width="4" height="96" fill="#4a4a4a"/><path fill="#111111" d="M801.5 143h25v5h-25zM801.5 148h5v5h-5zM801.5 153h20v5h-20zM821.5 158h5v5h-5zM821.5 163h5v5h-5zM801.5 168h5v5h-5zM821.5 168h5v5h-5zM806.5 173h15v5h-15z"/><path fill="#f0f0f0" d="M799.5 141h25v5h-25zM799.5 146h5v5h-5zM799.5 151h20v5h-20zM819.5 156h5v5h-5zM819.5 161h5v5h-5zM799.5 166h5v5h-5zM819.5 166h5v5h-5zM804.5 171h15v5h-15z"/><g class="h4" opacity="0"><rect x="760.0" y="106.0" width="104" height="104" fill="none" stroke="#d9a441" stroke-width="4"/></g><text x="812.0" y="228.0" font-size="12" font-weight="bold" text-anchor="middle" fill="#d4d4d4" font-family="'DejaVu Sans Mono',Consolas,'Courier New',monospace">REPLY</text><g class="c4" opacity="0"><text x="36" y="292" font-size="12" fill="#d9a441" font-family="'DejaVu Sans Mono',Consolas,'Courier New',monospace">STEP 5 OF 5</text><text x="36" y="318" font-size="17" font-weight="bold" fill="#eeeeee" font-family="'DejaVu Sans Mono',Consolas,'Courier New',monospace">Reply</text><text x="36" y="342" font-size="14" fill="#d4d4d4" font-family="'DejaVu Sans Mono',Consolas,'Courier New',monospace">Shown in the browser, fully offline</text></g><g class="it" opacity="0"><rect x="81.0" y="180" width="14" height="14" fill="#d9a441"/><rect x="81.0" y="180" width="14" height="3" fill="#f3d089"/><rect x="81.0" y="191" width="14" height="3" fill="#9a7428"/></g><text x="864" y="342" font-size="13" text-anchor="end" fill="#8a8d92" font-family="'DejaVu Sans Mono',Consolas,'Courier New',monospace">local LLM | FAISS | no API keys</text><text x="864" y="318" font-size="12" text-anchor="end" fill="#6a6a6a" font-family="'DejaVu Sans Mono',Consolas,'Courier New',monospace">loops every 10s</text></svg>